<svg id="Accord-Redesigned-Badge" xmlns="http://www.w3.org/2000/svg" viewBox="0 0 351 72" role="presentation" aria-hidden="true">
<style type="text/css">
	#Accord-Redesigned-Badge {
    fill: #ffffff;
 	}
</style>
<title>Accord-Redesigned-Badge</title>
<path d="M276.9,48.6c3.2-0.5,5.4-1.2,7.2-2.2c1.7-0.9,3.1-2.1,4.3-3.8c0.8-1,1.5-2.5,1.8-3.8
	c1.5-5.7-1.4-7.4-8.1-7.7c-1.2-0.1-2.1-0.1-4.4-0.1l-32.2,0l-10.7,29.4h13.8l8.8-24.3c2.9,0,13.4,0,14.4,0c0.8,0,1.7,0,3,0.1
	c2.4,0.2,2.5,1,2.2,2.6c-0.2,0.9-1,2-1.7,2.7c-1,0.9-2.7,1.5-5.2,1.7c-1.4,0.1-2.2,0.2-3.2,0.2c-0.6,0-0.9,0-1.6,0h-8.1
	c0,0,15.2,15.6,15.3,15.7c1.1,1,1.6,1.2,3.9,1.3c0.3,0,1,0,1.4,0c0.7,0,8,0,10.8,0h0C288.6,60.4,276.8,48.6,276.9,48.6"></path>
<path d="M48.7,60.4h14.1L63,31c0,0-7,0-12.1,0c-2,0-3.6,0-4.2,0c-0.6,0-3.1,0-4.9,0.2
	c-3,0.3-4.6,1.1-7.2,2.9c-0.6,0.4-2.4,1.7-3.1,2.2L0,60.4h12.9l8.7-6.7h27.1L48.7,60.4z M29,48l0.1-0.1l11-8.5
	c1.1-0.9,1.8-1.4,2.4-1.8c1.4-1,2.2-1.2,4-1.2h0.8H49l-0.1,11.5V48L29,48z"></path>
<path d="M215.1,49.9c-1.7,3.1-3.1,4.2-7,4.9c-2.4,0.4-4.2,0.5-6.6,0.5c-2.3,0-4.1-0.1-6.1-0.5
	c-3.4-0.6-3.9-1.6-3.1-4.9c0.3-1.4,0.9-3.1,1.5-4.7c0.7-1.7,1.4-3.4,2.2-4.8c1.8-3.2,2.8-4.2,6.9-4.8c2.3-0.4,4.2-0.4,6.6-0.4
	c2.4,0,4.2,0.1,6.1,0.4c3.3,0.5,3.9,1.4,3.1,5c-0.3,1.4-0.9,3-1.5,4.7C216.6,46.8,215.8,48.6,215.1,49.9 M225.4,31.1
	c-3.6-0.7-10.4-0.9-14.6-0.9c-4.3,0-11.1,0.3-15.2,0.9c-7.3,1.2-9.8,2.8-12.6,7.6c-1.1,2-2.1,4.2-2.9,6.4c-0.8,2.2-1.3,4.4-1.6,6.3
	c-0.7,4.8,0.4,7.2,6.9,8.4c3.6,0.7,9.9,1,14.5,1c4.6,0,11.1-0.4,15.2-1c7.5-1.2,9.9-2.7,12.7-7.6c1.1-2,2.1-4.1,2.8-6.3
	c0.8-2.2,1.4-4.4,1.7-6.4C233.1,34.4,231.8,32.2,225.4,31.1"></path>
<path d="M100.8,36.1c3.5,0,12.2,0,13.7,0c0.9,0,1.2,0,2.1,0c2.6-0.1,3.3-0.5,4.4-2.5
	c0.3-0.5,0.9-1.7,1.3-2.6H98.1c-0.7,0-2.9,0-4.5,0.1c-3.3,0.1-6.6,0.3-9.2,0.8c-4.9,1-6.9,2.8-9.2,6.9c-1.2,2.1-2.2,4.5-3,6.9
	c-0.8,2.4-1.4,4.6-1.5,6.7c-0.1,2.9,1.2,5.3,4.9,6.7c2.9,1.1,6.5,1.4,11.3,1.4c5,0,23,0,23.7,0c0.5,0,1.2,0,2.1,0
	c1.1,0,1.8-0.2,2.3-1.2c0.2-0.4,0.6-1.4,0.8-1.8c0.4-1,0.9-2.5,0.9-2.5c-0.4,0-22.4,0-23.6,0c-2.9,0-4.5,0-6.2-0.5
	c-1.8-0.5-2.4-1.3-2.3-2.9c0.1-2.6,2.4-9.4,4-11.7c1.2-1.8,2.2-2.7,4.6-3.2C95.5,36.2,98.1,36.1,100.8,36.1"></path>
<path d="M154.1,36.1c3.5,0,12.2,0,13.7,0c0.9,0,1.2,0,2.1,0c2.6-0.1,3.3-0.5,4.4-2.5
	c0.3-0.5,0.9-1.7,1.3-2.6h-24.3c-0.7,0-2.9,0-4.5,0.1c-3.3,0.1-6.6,0.3-9.2,0.8c-4.9,1-6.9,2.8-9.2,6.9c-1.2,2.1-2.2,4.5-3,6.9
	c-0.8,2.4-1.4,4.6-1.5,6.7c-0.1,2.9,1.2,5.3,4.9,6.7c2.9,1.1,6.5,1.4,11.3,1.4c5,0,23,0,23.7,0c0.5,0,1.1,0,2.1,0
	c1.1,0,1.8-0.2,2.3-1.2c0.2-0.4,0.6-1.4,0.8-1.8c0.4-1,0.9-2.5,0.9-2.5c-0.4,0-22.4,0-23.6,0c-2.9,0-4.4,0-6.2-0.5
	c-1.8-0.5-2.4-1.3-2.3-2.9c0.1-2.6,2.4-9.4,4-11.7c1.2-1.8,2.2-2.7,4.6-3.2C148.7,36.2,151.4,36.1,154.1,36.1"></path>
<path d="M333.3,51.1c-1.3,1.8-2.7,2.8-5.2,3.2c-2.4,0.4-4.4,0.5-7.2,0.5h-10.2l6.8-18.8h13
	c2.2,0,3.8,0.1,5.2,0.4c1.5,0.3,2,1.3,1.9,3C337.5,42.1,335,48.8,333.3,51.1 M346.7,31.9c-2.9-0.8-7.3-0.9-9.5-0.9
	c-6.7,0-31.6,0-31.6,0l-10.7,29.4c0,0,26.2,0,26.9,0c1.3,0,2.4,0,4-0.1c3.6-0.1,7-0.3,9.8-0.8c5.2-1,8.3-2.8,10.7-6.8
	c1.3-2.1,2.4-4.7,3.3-7.1c0.6-1.8,1.1-3.8,1.4-5.4C351.8,35.3,350.6,33,346.7,31.9"></path>
<path d="M235.5,12.7c-0.7,0-1.2-0.5-1.2-1.2c0-0.7,0.5-1.2,1.2-1.2l114.2-0.1c0,0,0,0,0,0c0.7,0,1.2,0.5,1.2,1.2
	c0,0.7-0.5,1.2-1.2,1.2L235.5,12.7C235.5,12.7,235.5,12.7,235.5,12.7z M116.6,12.6H1.2c-0.7,0-1.2-0.5-1.2-1.2s0.5-1.2,1.2-1.2
	h115.4c0.7,0,1.2,0.5,1.2,1.2S117.2,12.6,116.6,12.6z"></path>
<path d="M135.7,17.1c0.5,0,0.9-0.4,0.9-0.9c0-0.2,0-0.4-0.2-0.6l-3-4.5c1.8-0.3,3.1-1.5,3.1-3.4
	c0-2.6-2.1-3.5-4.5-3.5h-3c-0.7,0-1.1,0.3-1.1,1.1v10.8c0,0.8,0.6,1,0.9,1c0.3,0,0.9-0.2,0.9-1v-4.8h1.9l3.3,5.3
	C135.1,17,135.4,17.1,135.7,17.1z M131.7,9.8h-2.1V5.8h2.2c1.5,0,2.9,0.5,2.9,2S133.4,9.8,131.7,9.8z M142.8,17.2
	c1.3,0,2.4-0.4,3.2-1.3c0.2-0.2,0.3-0.5,0.3-0.6c0-0.4-0.3-0.7-0.7-0.7c-0.2,0-0.4,0.1-0.6,0.3c-0.5,0.5-1.2,0.9-2.2,0.9
	c-1.5,0-2.7-1.1-2.8-2.6h5.9c0.6,0,0.9-0.3,0.9-0.9c0-0.2,0-0.3,0-0.6c-0.3-2.3-1.9-3.6-4-3.6c-2.5,0-4.4,1.9-4.4,4.5
	C138.3,15.4,140.2,17.2,142.8,17.2z M145.1,12H140c0.1-1.3,1.2-2.4,2.7-2.4C144.2,9.6,145,10.6,145.1,12z M152.9,17.2
	c1.2,0,2.4-0.6,3.1-1.6h0v0.6c0,0.8,0.6,0.9,0.8,0.9c0.3,0,0.8-0.1,0.8-0.9V4.2c0-0.8-0.6-0.9-0.8-0.9c-0.3,0-0.8,0.1-0.8,0.9v5.6h0
	c-0.6-0.8-1.7-1.5-3-1.5c-2.6,0-4.3,2-4.3,4.5C148.6,15.2,150.2,17.2,152.9,17.2z M153.2,15.8c-1.9,0-2.8-1.5-2.8-3.1s1-3.1,2.8-3.1
	c1.7,0,2.9,1.5,2.9,3.1S154.9,15.8,153.2,15.8z M164.5,17.2c1.3,0,2.4-0.4,3.2-1.3c0.2-0.2,0.3-0.5,0.3-0.6c0-0.4-0.3-0.7-0.7-0.7
	c-0.2,0-0.4,0.1-0.6,0.3c-0.5,0.5-1.2,0.9-2.2,0.9c-1.5,0-2.7-1.1-2.8-2.6h5.9c0.6,0,0.9-0.3,0.9-0.9c0-0.2,0-0.3,0-0.6
	c-0.3-2.3-1.9-3.6-4.1-3.6c-2.5,0-4.4,1.9-4.4,4.5C160,15.4,161.9,17.2,164.5,17.2z M166.8,12h-5.1c0.1-1.3,1.2-2.4,2.7-2.4
	C166,9.6,166.8,10.6,166.8,12z M173.3,17.2c1.7,0,3.4-0.7,3.4-2.8c0-1.5-1.2-2.2-2.9-2.5c-1.3-0.3-1.9-0.6-1.9-1.3
	c0-0.8,0.8-1.1,1.6-1.1c0.6,0,1.1,0.2,1.6,0.6c0.2,0.2,0.4,0.3,0.5,0.3c0.4,0,0.7-0.3,0.7-0.7c0-0.2-0.1-0.4-0.4-0.7
	c-0.6-0.5-1.5-0.8-2.5-0.8c-1.6,0-3.2,0.8-3.2,2.6c0,1.6,1.3,2.1,2.5,2.4c1.5,0.3,2.2,0.6,2.2,1.4c0,0.9-0.8,1.2-1.7,1.2
	c-0.7,0-1.3-0.3-1.8-0.8c-0.2-0.2-0.4-0.3-0.6-0.3c-0.4,0-0.7,0.3-0.7,0.8c0,0.2,0.1,0.4,0.4,0.7C171.2,16.9,172.3,17.2,173.3,17.2z
	 M179.7,6.5c0.6,0,1.1-0.5,1.1-1.1c0-0.6-0.5-1.1-1.1-1.1s-1.1,0.5-1.1,1.1C178.6,6,179.1,6.5,179.7,6.5z M179.7,17.1
	c0.3,0,0.8-0.1,0.8-0.9V9.3c0-0.8-0.6-0.9-0.8-0.9c-0.3,0-0.8,0.1-0.8,0.9v6.9C178.9,17,179.5,17.1,179.7,17.1z M187.3,21.3
	c3.5,0,4.7-2.3,4.7-4.8V9.2c0-0.8-0.6-0.9-0.8-0.9c-0.3,0-0.8,0.1-0.8,0.9v0.6h0c-0.6-1.1-1.9-1.6-3.1-1.6c-2.6,0-4.3,2-4.3,4.4
	s1.7,4.4,4.3,4.4c1.2,0,2.4-0.5,3-1.5h0v1.1c0,1.8-0.8,3.1-3,3.1c-0.9,0-1.8-0.3-2.6-1c-0.3-0.2-0.4-0.3-0.6-0.3
	c-0.5,0-0.8,0.4-0.8,0.8c0,0.2,0.1,0.5,0.4,0.7C184.6,20.9,186,21.3,187.3,21.3z M187.6,15.6c-1.8,0-2.8-1.4-2.8-3c0-1.6,1-3,2.8-3
	c1.7,0,2.9,1.4,2.9,3C190.5,14.3,189.3,15.6,187.6,15.6z M201.7,17.1c0.3,0,0.8-0.1,0.8-0.9v-4.5c0-1.9-1-3.5-3.2-3.5
	c-1.2,0-2.4,0.7-2.8,1.6h-0.1V9.2c0-0.8-0.5-0.9-0.8-0.9c-0.3,0-0.8,0.1-0.8,0.9v7c0,0.8,0.6,0.9,0.8,0.9c0.3,0,0.8-0.1,0.8-0.9
	v-3.7c0-1.7,1-2.8,2.3-2.8c1.6,0,1.9,1.2,1.9,2.6v3.9C200.8,17,201.4,17.1,201.7,17.1z M209.3,17.2c1.4,0,2.4-0.4,3.2-1.3
	c0.2-0.2,0.3-0.5,0.3-0.6c0-0.4-0.3-0.7-0.7-0.7c-0.2,0-0.4,0.1-0.6,0.3c-0.5,0.5-1.2,0.9-2.2,0.9c-1.5,0-2.7-1.1-2.8-2.6h5.9
	c0.6,0,0.9-0.3,0.9-0.9c0-0.2,0-0.3,0-0.6c-0.3-2.3-1.9-3.6-4.1-3.6c-2.5,0-4.4,1.9-4.4,4.5C204.8,15.4,206.7,17.2,209.3,17.2z
	 M211.6,12h-5.1c0.1-1.3,1.2-2.4,2.7-2.4C210.8,9.6,211.6,10.6,211.6,12z M219.4,17.2c1.2,0,2.4-0.6,3.1-1.6h0v0.6
	c0,0.8,0.6,0.9,0.8,0.9c0.3,0,0.8-0.1,0.8-0.9V4.2c0-0.8-0.6-0.9-0.8-0.9c-0.3,0-0.8,0.1-0.8,0.9v5.6h0c-0.6-0.8-1.7-1.5-3-1.5
	c-2.6,0-4.3,2-4.3,4.5C215.1,15.2,216.8,17.2,219.4,17.2z M219.7,15.8c-1.9,0-2.8-1.5-2.8-3.1s1-3.1,2.8-3.1c1.7,0,2.9,1.5,2.9,3.1
	S221.4,15.8,219.7,15.8z"></path>
</svg>