<svg fill="#000000" xmlns="http://www.w3.org/2000/svg"  viewBox="0 0 50 50" width="50px" height="50px">
    <path fill-rule="evenodd" d="M43.549,30.87c-0.324,2.367-0.548,5.466-2.238,7.301c-0.594,0.648-5.195,3.348-4.977,1.268c0.845-6.501,1.311-13.022,1.712-19.565c0.118-2.746,0.273-5.496,0.311-8.243c0.04-0.464-0.247-1.606,0.476-1.637c1.366,0.399,2.867,0.802,3.767,2.014c1.705,2.292,1.507,5.736,1.538,8.449C44.179,23.92,44.02,27.436,43.549,30.87L43.549,30.87z M34.534,9.938c-0.935,3.432-2.016,7.983-2.978,11.43c-0.77,2.758-1.653,6.311-4.993,6.663c-0.499,0.052-1.028,0.096-1.563,0.104c-0.535-0.008-1.064-0.052-1.563-0.104c-3.34-0.353-4.223-3.905-4.993-6.663c-0.962-3.447-2.042-7.998-2.978-11.43c-0.161-0.592,0.081-0.457,1.29-0.622c2.173-0.294,5.413-0.34,8.244-0.312c2.83-0.028,6.071,0.018,8.244,0.312C34.453,9.481,34.695,9.346,34.534,9.938L34.534,9.938z M30.968,40.721c-0.269,0.047-1.175,0.046-2.174,0.07c-1.266,0.031-2.529,0.034-3.793,0.034c-1.264,0-2.527-0.003-3.793-0.034c-1-0.025-1.906-0.023-2.175-0.07c-0.27-0.047-0.547-0.064-0.466-0.366c0.082-0.304,1.296-4.251,1.296-4.251c0.797-2.624,0.853-2.796,2.899-3.2c0.68-0.135,1.455-0.222,2.239-0.227c0.784,0.005,1.559,0.092,2.239,0.227c2.046,0.404,2.102,0.577,2.899,3.2c0,0,1.215,3.947,1.296,4.251C31.515,40.658,31.238,40.674,30.968,40.721L30.968,40.721z M8.688,38.171c-1.691-1.835-1.914-4.934-2.238-7.301c-0.47-3.433-0.629-6.95-0.589-10.413c0.031-2.714-0.167-6.157,1.538-8.449c0.901-1.212,2.401-1.614,3.768-2.014c0.722,0.03,0.436,1.173,0.476,1.637c0.038,2.747,0.193,5.498,0.311,8.243c0.399,6.543,0.866,13.064,1.711,19.565C13.884,41.52,9.283,38.819,8.688,38.171L8.688,38.171z M46.922,17.526c-0.151-2.562-0.527-5.359-2.411-7.255c-1.718-1.729-4.197-2.214-6.505-2.525C33.664,7.163,29.384,7.003,25,7c-4.384,0.003-8.664,0.163-13.006,0.747c-2.307,0.311-4.787,0.796-6.505,2.525c-1.884,1.896-2.259,4.692-2.411,7.255c-0.176,2.971-0.025,5.933,0.157,8.898c0.183,2.918,0.509,5.864,1.216,8.706c0.328,1.318,0.771,2.641,1.53,3.775c0.729,1.088,1.78,1.858,2.956,2.4c2.499,1.152,5.384,1.25,8.083,1.418C19.667,42.887,22.333,42.987,25,43c2.667-0.013,5.332-0.113,7.98-0.278c2.699-0.169,5.583-0.267,8.083-1.418c1.177-0.541,2.227-1.312,2.956-2.4c0.759-1.134,1.202-2.457,1.53-3.775c0.707-2.841,1.033-5.787,1.215-8.706C46.946,23.459,47.098,20.497,46.922,17.526L46.922,17.526z" clip-rule="evenodd"/></svg>